# xmcd CD database file
#
# Track frame offsets:
#	150
#	32855
#	72300
#	109527
#	152245
#	181575
#
# Disc length: 2655 seconds
#
# Revision: 1
# Processed by: cddbd v1.4PL0 Copyright (c) Steve Scherf et al.
# Submitted via: CDex 1.50Beta7
#
DISCID=450a5d06
DTITLE=Terumasa Hino and John Scofield - May Dance
DYEAR=1900
DGENRE=Jazz
TTITLE0=Wind Blows Your Skin
TTITLE1=The Wild Lady
TTITLE2=Big Celebration
TTITLE3=Free Land
TTITLE4=Moss On The Rock
TTITLE5=Lovin' May
EXTD=
EXTT0=
EXTT1=
EXTT2=
EXTT3=
EXTT4=
EXTT5=
PLAYORDER=
